# xmcd
#
# Track frame offsets:
#	150
#	11834
#	25986
#	36382
#	48117
#	60795
#	71394
#	80761
#	91886
#	101640
#	113118
#	126846
#	138330
#	146968
#	163102
#	172971
#	182813
#	192433
#	203779
#	213142
#
# Disc length: 3131 seconds
#
# Revision: 1
# Processed by: cddbd v1.5.2PL0 Copyright (c) Steve Scherf et al.
# Submitted via: audiograbber 1.83.01
#
DISCID=1a0c3914
DTITLE=verschiedene - Country
DYEAR=1900
DGENRE=
TTITLE0=Don Gibson - Can´t Stop Loving You
TTITLE1=Everly Brothers - That Silver-Haired Daddy Of Mine
TTITLE2=Johnny Cash - Big River
TTITLE3=Marvin Rainwater - Whole Lotta Woman
TTITLE4=Jim Reeves - Four Walls
TTITLE5=Hank Thompson - Rockin´ In The Congo
TTITLE6=Johnny Horton - I´m Coming Home
TTITLE7=Johnny Duncan - Last Train To San Fernando
TTITLE8=Johnny Cash - Rock Island Line
TTITLE9=Marty Robbins - The Story Of My Life
TTITLE10=Bobby Bare - All American Boy
TTITLE11=Marvin Rainwater - Gonna Find Me A Bluebird
TTITLE12=Don Gibson - Blue Blue Day
TTITLE13=Everly Brothers - I´m Here To Get My Baby Out Of Jail
TTITLE14=Johnny Cash - Ballad Of A Teenage Queen
TTITLE15=Marty Robbins - Stairway Of Love
TTITLE16=Marvin Rainwater - Baby Don´t Go
TTITLE17=Don Gibson - Oh Lonesome Me
TTITLE18=Jim Reeves - Billy Bayou
TTITLE19=Everly Brothers - Lightnin´ Express
EXTD=
EXTT0=
EXTT1=
EXTT2=
EXTT3=
EXTT4=
EXTT5=
EXTT6=
EXTT7=
EXTT8=
EXTT9=
EXTT10=
EXTT11=
EXTT12=
EXTT13=
EXTT14=
EXTT15=
EXTT16=
EXTT17=
EXTT18=
EXTT19=
PLAYORDER=
